<svg width="153" height="51" viewBox="0 0 153 51" fill="none" xmlns="http://www.w3.org/2000/svg">
<rect x="1" y="1" width="151" height="49" rx="9" fill="#F9784B" stroke="#3D3C3C" stroke-width="2"/>
<path d="M29.56 26.424V29.8H35.656V31H28.28V20.6H35.64V21.8H29.56V25.224H34.536V26.424H29.56ZM44.2094 23L41.1054 27.352L38.5614 31H37.0094L40.3214 26.408L42.6574 23H44.2094ZM37.0094 23H38.6094L41.0894 26.44L44.3694 31H42.8174L40.2254 27.352L37.0094 23ZM49.8056 31.16C49.219 31.16 48.739 31.0267 48.3656 30.76C47.9923 30.4827 47.699 30.1307 47.4856 29.704C47.283 29.2667 47.139 28.8133 47.0536 28.344C46.9683 27.864 46.9256 27.4213 46.9256 27.016C46.9256 26.44 46.963 25.9013 47.0376 25.4C47.123 24.8987 47.267 24.456 47.4696 24.072C47.6723 23.688 47.9603 23.3893 48.3336 23.176C48.7176 22.952 49.2083 22.84 49.8056 22.84C50.4456 22.84 51.027 23.0213 51.5496 23.384C52.0723 23.7467 52.4883 24.2427 52.7976 24.872C53.1176 25.5013 53.2776 26.216 53.2776 27.016C53.2776 27.816 53.1176 28.5307 52.7976 29.16C52.4776 29.7787 52.051 30.2693 51.5176 30.632C50.995 30.984 50.4243 31.16 49.8056 31.16ZM49.4856 29.944C49.9763 29.944 50.4083 29.8213 50.7816 29.576C51.1656 29.32 51.4643 28.9733 51.6776 28.536C51.891 28.088 51.9976 27.5813 51.9976 27.016C51.9976 26.1627 51.779 25.4587 51.3416 24.904C50.9043 24.3387 50.2856 24.056 49.4856 24.056C49.0163 24.056 48.6003 24.184 48.2376 24.44C47.875 24.6853 47.5923 25.032 47.3896 25.48C47.187 25.9173 47.0856 26.4293 47.0856 27.016C47.0856 27.5493 47.171 28.04 47.3416 28.488C47.523 28.9253 47.7896 29.2773 48.1416 29.544C48.4936 29.8107 48.9416 29.944 49.4856 29.944ZM45.8056 23H47.0376L47.0856 24.68V34.2H45.8056V23ZM55.075 19.8H56.355V31H55.075V19.8ZM62.0745 31.16C61.3918 31.16 60.7518 30.9947 60.1545 30.664C59.5572 30.3333 59.0718 29.8587 58.6985 29.24C58.3358 28.6107 58.1545 27.8693 58.1545 27.016C58.1545 26.1627 58.3358 25.4267 58.6985 24.808C59.0718 24.1787 59.5572 23.6933 60.1545 23.352C60.7518 23.0107 61.3918 22.84 62.0745 22.84C62.7572 22.84 63.3918 23.0107 63.9785 23.352C64.5758 23.6933 65.0558 24.1787 65.4185 24.808C65.7812 25.4267 65.9625 26.1627 65.9625 27.016C65.9625 27.8693 65.7812 28.6107 65.4185 29.24C65.0558 29.8587 64.5758 30.3333 63.9785 30.664C63.3918 30.9947 62.7572 31.16 62.0745 31.16ZM62.0745 29.96C62.5225 29.96 62.9438 29.848 63.3385 29.624C63.7332 29.4 64.0532 29.0693 64.2985 28.632C64.5545 28.184 64.6825 27.6453 64.6825 27.016C64.6825 26.3867 64.5545 25.8533 64.2985 25.416C64.0532 24.968 63.7332 24.6267 63.3385 24.392C62.9438 24.1573 62.5225 24.04 62.0745 24.04C61.6265 24.04 61.1998 24.1573 60.7945 24.392C60.3998 24.616 60.0745 24.952 59.8185 25.4C59.5625 25.8373 59.4345 26.376 59.4345 27.016C59.4345 27.6453 59.5572 28.184 59.8025 28.632C60.0585 29.0693 60.3892 29.4 60.7945 29.624C61.1998 29.848 61.6265 29.96 62.0745 29.96ZM67.5869 23H68.8669V31H67.5869V23ZM71.4269 24.2C70.8829 24.2 70.4242 24.3387 70.0509 24.616C69.6882 24.8827 69.4002 25.2133 69.1869 25.608C68.9842 25.992 68.8509 26.3653 68.7869 26.728L68.7709 25.8C68.7709 25.704 68.7922 25.544 68.8349 25.32C68.8775 25.096 68.9575 24.8453 69.0749 24.568C69.1922 24.28 69.3469 24.008 69.5389 23.752C69.7415 23.4853 69.9975 23.2667 70.3069 23.096C70.6162 22.9253 70.9895 22.84 71.4269 22.84V24.2ZM78.5321 28.424H79.7321C79.6468 28.9467 79.4548 29.416 79.1561 29.832C78.8681 30.2373 78.4841 30.5627 78.0041 30.808C77.5348 31.0427 76.9908 31.16 76.3721 31.16C75.6255 31.16 74.9535 30.984 74.3561 30.632C73.7588 30.2693 73.2841 29.7787 72.9321 29.16C72.5908 28.5307 72.4201 27.816 72.4201 27.016C72.4201 26.216 72.5855 25.5013 72.9161 24.872C73.2575 24.2427 73.7215 23.7467 74.3081 23.384C74.8948 23.0213 75.5561 22.84 76.2921 22.84C77.0708 22.84 77.7268 23.016 78.2601 23.368C78.8041 23.7093 79.2041 24.216 79.4601 24.888C79.7268 25.5493 79.8335 26.3653 79.7801 27.336H73.7001C73.7535 27.8587 73.8975 28.3173 74.1321 28.712C74.3668 29.1067 74.6761 29.416 75.0601 29.64C75.4441 29.8533 75.8815 29.96 76.3721 29.96C76.9161 29.96 77.3748 29.8213 77.7481 29.544C78.1321 29.256 78.3935 28.8827 78.5321 28.424ZM76.3401 24.04C75.6788 24.04 75.1241 24.232 74.6761 24.616C74.2281 25 73.9295 25.5227 73.7801 26.184H78.4681C78.4255 25.48 78.1961 24.9467 77.7801 24.584C77.3748 24.2213 76.8948 24.04 76.3401 24.04Z" fill="#3D3C3C"/>
<path d="M110.231 21.0732H115.769" stroke="#3D3C3C" stroke-width="1.5" stroke-linecap="round" stroke-linejoin="round"/>
<path d="M124.723 28.2617L119.681 16.804C119.16 16.2889 118.457 16 117.725 16C116.993 16 116.29 16.2889 115.769 16.804V29.8425" stroke="#3D3C3C" stroke-width="1.5" stroke-linecap="round" stroke-linejoin="round"/>
<path d="M110.231 29.8425V16.804C109.71 16.2889 109.007 16 108.275 16C107.543 16 106.84 16.2889 106.319 16.804L101.277 28.2617" stroke="#3D3C3C" stroke-width="1.5" stroke-linecap="round" stroke-linejoin="round"/>
<path d="M105.615 34.4578C108.164 34.4578 110.231 32.3914 110.231 29.8424C110.231 27.2934 108.164 25.2271 105.615 25.2271C103.066 25.2271 101 27.2934 101 29.8424C101 32.3914 103.066 34.4578 105.615 34.4578Z" stroke="#3D3C3C" stroke-width="1.5" stroke-linecap="round" stroke-linejoin="round"/>
<path d="M120.385 34.4578C122.934 34.4578 125 32.3914 125 29.8424C125 27.2934 122.934 25.2271 120.385 25.2271C117.836 25.2271 115.769 27.2934 115.769 29.8424C115.769 32.3914 117.836 34.4578 120.385 34.4578Z" stroke="#3D3C3C" stroke-width="1.5" stroke-linecap="round" stroke-linejoin="round"/>
</svg>
